<svg width="24" height="24" viewBox="0 0 24 24" fill="none" xmlns="http://www.w3.org/2000/svg">
<path d="M15.7972 11.4706L15.2143 11.4706L15.2143 17.8235C15.2143 18.8102 15.2143 19.3036 15.0512 19.6927C14.8337 20.2116 14.4165 20.6239 13.8915 20.8388C13.4976 21 12.9985 21 12 21C11.0015 21 10.5024 21 10.1085 20.8388C9.5835 20.6239 9.16629 20.2116 8.94879 19.6927C8.78571 19.3036 8.78571 18.8102 8.78571 17.8235L8.78571 11.4706L8.20286 11.4706C5.97128 11.4706 4.85561 11.4706 4.56193 10.835C4.26825 10.1994 5.03293 9.43945 6.56239 7.91972L10.3595 4.14649C11.1287 3.38213 11.5134 3 12 3C12.4866 3 12.8713 3.38213 13.6405 4.14649L17.4376 7.91972C18.967 9.43945 19.7317 10.1994 19.4381 10.835C19.1445 11.4706 18.0287 11.4706 15.7972 11.4706Z" stroke="#676767" stroke-width="1.9" stroke-linecap="round" stroke-linejoin="round"/>
</svg>
